<svg width="56" height="26" viewBox="0 0 56 26" fill="none" xmlns="http://www.w3.org/2000/svg">
<path d="M9.90796 3.60094C9.90796 3.04306 9.85724 2.58661 9.80653 2.33303C9.70509 1.72443 9.40079 1.16655 8.89363 0.710097C8.38646 0.253647 7.82858 0.0507812 7.11855 0.0507812C6.40852 0.0507812 5.7492 0.304364 5.24203 0.81153C4.68415 0.304364 4.07555 0.0507812 3.36552 0.0507812C2.7062 0.0507812 2.04689 0.304364 1.59044 0.710097C1.13399 1.11583 0.778974 1.623 0.626824 2.33303C0.576107 2.63733 0.525391 3.04306 0.525391 3.60094V7.96257C0.525391 8.21615 0.728257 8.31759 0.880407 8.31759C1.13399 8.31759 1.23542 8.11472 1.23542 7.96257V3.44879C1.23542 2.63733 1.38757 1.97801 1.74259 1.47085C2.09761 0.912963 2.65549 0.659381 3.41624 0.659381C3.97412 0.659381 4.43057 0.862246 4.8363 1.26798C4.48129 1.87658 4.32914 2.53589 4.32914 3.44879V7.91185C4.32914 8.11472 4.48129 8.26687 4.68415 8.26687C4.93773 8.26687 5.03917 8.064 5.03917 7.91185V3.39808C5.03917 2.73876 5.1406 2.23159 5.29275 1.87658C5.4449 2.28231 5.54633 2.89091 5.54633 3.60094V7.96257C5.54633 8.16544 5.69848 8.31759 5.90135 8.31759C6.15493 8.31759 6.25637 8.11472 6.25637 7.96257V3.29664C6.25637 2.38374 6.10422 1.72443 5.7492 1.21726C6.10422 0.862246 6.56067 0.659381 7.11855 0.659381C7.62571 0.659381 8.08216 0.811529 8.43718 1.11583C8.7922 1.36941 9.04578 1.77514 9.19793 2.28231C9.29936 2.58661 9.29936 2.94163 9.29936 3.44879V7.96257C9.29936 8.16544 9.45151 8.31759 9.65438 8.31759C9.90796 8.31759 10.0094 8.11472 10.0094 7.96257L9.95868 7.70899V3.60094H9.90796Z" fill="black"/>
<path d="M18.1236 1.31876C17.3122 0.507296 16.2978 0.101562 15.1314 0.101562C13.9649 0.101562 12.9505 0.507296 12.1391 1.31876C11.3276 2.13023 10.9219 3.14456 10.9219 4.31104C10.9219 5.47752 11.3276 6.49185 12.1898 7.30332C13.052 8.11479 14.0663 8.52052 15.2328 8.52052C16.095 8.52052 16.9064 8.26694 17.5657 7.81049V7.91192C17.5657 8.26693 17.7686 8.36837 17.9208 8.36837C18.0729 8.36837 18.2758 8.21622 18.2758 7.91192V7.2526C19.0872 6.39042 19.493 5.42681 19.493 4.31104C19.3915 3.09384 18.9351 2.07951 18.1236 1.31876ZM17.4643 4.36176V6.99902C16.7543 7.60762 15.9935 7.91192 15.1314 7.91192C14.1677 7.91192 13.3056 7.5569 12.6462 6.84687C11.9362 6.18755 11.6319 5.37609 11.6319 4.36176C11.6319 3.34743 11.9869 2.53596 12.697 1.82593C13.407 1.1159 14.2185 0.760878 15.2328 0.760878C16.1964 0.760878 17.0586 1.1159 17.7179 1.82593C18.3772 2.53596 18.7829 3.34742 18.7829 4.31104C18.7829 5.02107 18.5801 5.62967 18.2251 6.18755V4.36176C18.1236 3.85459 17.4643 3.85459 17.4643 4.36176Z" fill="black"/>
<path d="M23.9565 8.52058C24.9202 8.52058 25.8331 8.21628 26.6445 7.55697C26.8474 7.40482 26.9995 7.30338 27.101 7.15123H27.1517V7.10052C27.2024 7.0498 27.2024 6.99908 27.2024 6.89765C27.2024 6.7455 27.101 6.59335 26.8981 6.59335H26.6952L26.6445 6.69478V6.79622C26.2895 7.10052 25.8838 7.40482 25.478 7.60768C25.0216 7.81055 24.5144 7.9627 24.058 7.9627C23.0436 7.9627 22.2322 7.60768 21.5729 6.89765C20.8628 6.18762 20.5078 5.37615 20.5078 4.36182C20.5078 3.39821 20.8628 2.53602 21.5729 1.87671C22.2322 1.16667 23.0436 0.862375 24.058 0.862375C25.0216 0.862375 25.8838 1.21739 26.5938 1.92742L26.746 2.02886H26.9488L26.9995 1.97814C27.101 1.92742 27.1517 1.82599 27.1517 1.72456V1.62312L27.101 1.57241C27.101 1.57241 27.101 1.52169 27.0503 1.52169C26.9995 1.47097 26.9995 1.42026 26.9488 1.42026C26.1881 0.608793 25.1737 0.152344 23.9565 0.152344C22.7901 0.152344 21.7757 0.558075 20.9643 1.36954C20.1528 2.18101 19.7471 3.19534 19.7471 4.36182C19.7471 5.47759 20.1528 6.49192 20.9643 7.3541C21.8265 8.11485 22.8408 8.52058 23.9565 8.52058Z" fill="black"/>
<path d="M34.4039 1.31876C33.5924 0.507296 32.5781 0.101562 31.4116 0.101562C30.2451 0.101562 29.2308 0.507296 28.4193 1.31876C27.6079 2.13023 27.2021 3.14456 27.2021 4.31104C27.2021 5.47752 27.6079 6.49185 28.4193 7.30332C29.2815 8.11479 30.2959 8.52052 31.4623 8.52052C32.3245 8.52052 33.136 8.26694 33.7953 7.81049V7.91192C33.7953 8.26693 33.9982 8.36837 34.1503 8.36837C34.3025 8.36837 34.5053 8.21622 34.5053 7.91192V7.2526C35.3168 6.39042 35.7225 5.42681 35.7225 4.31104C35.6718 3.04312 35.2661 2.07951 34.4039 1.31876ZM33.7446 4.36176V6.99902C33.0346 7.60762 32.2738 7.91192 31.4116 7.91192C30.448 7.91192 29.5858 7.5569 28.8758 6.84687C28.1658 6.18755 27.8615 5.37609 27.8615 4.36176C27.8615 3.34743 28.2165 2.53596 28.9265 1.82593C29.6365 1.1159 30.448 0.760878 31.4623 0.760878C32.426 0.760878 33.2881 1.1159 33.9475 1.82593C34.6575 2.53596 35.0125 3.34742 35.0125 4.31104C35.0125 5.02107 34.8096 5.68039 34.4546 6.23827V4.41247C34.4039 3.85459 33.7446 3.85459 33.7446 4.36176Z" fill="black"/>
<path d="M36.7369 8.36801C36.9904 8.36801 37.0919 8.16514 37.0919 8.01299V4.71641C37.0919 3.85423 37.1426 3.34707 37.244 2.99205C37.3962 2.43417 37.7005 1.97772 38.1062 1.6227C38.5119 1.26768 38.9684 1.06482 39.4755 0.91267C39.7291 0.91267 39.8306 0.709803 39.8306 0.557653C39.8306 0.30407 39.6784 0.253353 39.577 0.202637H39.5263H39.4755C39.222 0.202637 38.9177 0.304069 38.5626 0.506936C37.954 0.811235 37.4469 1.21697 37.0919 1.77485C37.0919 1.47055 37.0919 1.06482 37.0919 0.608369C37.0919 0.101203 36.3818 0.101203 36.3818 0.608369V8.01299C36.3818 8.21586 36.534 8.36801 36.7369 8.36801Z" fill="black"/>
<path d="M47.1842 1.31876C46.3727 0.507296 45.3584 0.101562 44.1919 0.101562C43.0254 0.101562 42.0111 0.507296 41.1996 1.31876C40.3882 2.13023 39.9824 3.14456 39.9824 4.31104C39.9824 5.47752 40.3882 6.49185 41.1996 7.30332C42.0618 8.11479 43.0761 8.52052 44.2426 8.52052C45.4091 8.52052 46.4234 8.11479 47.2349 7.2526C48.0464 6.39042 48.4521 5.37609 48.4521 4.20961C48.4521 3.09384 48.0464 2.07951 47.1842 1.31876ZM44.1919 0.760878C45.1555 0.760878 46.0177 1.1159 46.677 1.82593C47.387 2.53596 47.7421 3.34742 47.7421 4.31104C47.7421 5.32537 47.387 6.18755 46.6263 6.84687C45.967 7.5569 45.1555 7.8612 44.1412 7.8612C43.1776 7.8612 42.3154 7.50619 41.6561 6.79615C40.946 6.08612 40.591 5.27465 40.591 4.31104C40.591 3.29671 40.946 2.48524 41.6561 1.77521C42.3154 1.06518 43.1776 0.760878 44.1919 0.760878Z" fill="black"/>
<path d="M55.0456 2.23153C54.9441 1.62293 54.6398 1.11577 54.0819 0.659317C53.5748 0.253585 52.9662 0 52.3069 0C51.7997 0 51.3432 0.101434 50.9375 0.355017C50.6332 0.557883 50.3289 0.76075 50.126 1.06505V0.557884C50.126 0.0507178 49.416 0.0507178 49.416 0.557884V7.96251C49.416 8.21609 49.6189 8.31752 49.771 8.31752C50.0246 8.31752 50.126 8.11466 50.126 7.96251V3.75303C50.126 3.29658 50.126 2.89085 50.1768 2.68798C50.2782 2.07938 50.4811 1.62293 50.8361 1.26791C51.2418 0.912899 51.749 0.710033 52.2561 0.710033C52.6619 0.710033 53.0676 0.811465 53.3719 1.01433C53.8284 1.26791 54.1327 1.67365 54.2341 2.18081C54.3355 2.48511 54.3355 3.043 54.3355 3.75303V7.96251C54.3355 8.16537 54.4877 8.31752 54.6905 8.31752C54.792 8.31752 54.8934 8.26681 54.9441 8.21609H55.0963V3.39801C55.147 2.94156 55.0963 2.53583 55.0456 2.23153Z" fill="black"/>
<path d="M16.3998 18.106C16.0447 18.106 15.994 18.3088 15.994 18.461C15.994 18.7146 16.1969 18.816 16.349 18.816C16.7548 18.816 17.0591 18.9174 17.4141 19.1203C18.0734 19.4753 18.4284 20.0839 18.4284 20.8447C18.4284 21.4025 18.2256 21.859 17.8198 22.2647C17.4141 22.6704 16.9576 22.8733 16.3998 22.8733C15.5883 22.8733 15.0304 22.5183 14.574 21.8083C14.4218 21.6054 14.3204 21.3011 14.3204 20.9461C14.3204 20.6925 14.1682 20.5404 13.9654 20.5404C13.7118 20.5404 13.6104 20.7432 13.6104 20.8954C13.6104 21.6054 13.9147 22.2647 14.4725 22.7212C14.9797 23.2283 15.639 23.4819 16.349 23.4819C17.1098 23.4819 17.7691 23.2283 18.2763 22.6705C18.7834 22.1633 19.0877 21.504 19.0877 20.7432C19.0877 19.9825 18.8342 19.3739 18.327 18.8667C17.8198 18.4103 17.1605 18.106 16.3998 18.106Z" fill="black"/>
<path d="M16.247 15.9757C16.9063 15.9757 17.3628 16.2293 17.6671 16.7872C17.7178 16.8886 17.8192 17.0915 17.87 17.2944C17.87 17.5479 18.0221 17.7001 18.225 17.7001C18.4278 17.7001 18.58 17.5479 18.58 17.3451C18.58 16.7365 18.2757 16.2293 17.7685 15.925C17.3121 15.5193 16.8049 15.3164 16.1963 15.3164C15.5877 15.3164 15.0298 15.5193 14.5734 15.9757C14.1676 16.4829 13.9141 16.9901 13.9141 17.5987C13.9141 18.2073 14.1169 18.7651 14.5734 19.2216C14.9791 19.678 15.537 19.9316 16.1456 19.9316C16.3992 19.9316 16.5513 19.7795 16.5513 19.5766C16.5513 19.3737 16.3992 19.2216 16.1963 19.2216C15.7399 19.2216 15.3848 19.0694 15.0805 18.7651C14.7762 18.4608 14.6241 18.0551 14.6241 17.5987C14.6241 17.1422 14.7762 16.7365 15.0805 16.4322C15.4863 16.1279 15.8413 15.9757 16.247 15.9757Z" fill="black"/>
<path d="M25.2244 18.7143C25.2244 18.1564 25.1737 17.7507 25.123 17.4971C24.9708 16.8378 24.6665 16.3306 24.2101 15.9756C23.7029 15.5191 23.1957 15.3163 22.5364 15.3163C22.08 15.3163 21.6235 15.4177 21.2178 15.6713C20.8628 15.8234 20.6092 16.077 20.4063 16.3306V13.2876C20.4063 12.7804 19.6963 12.7804 19.6963 13.2876V22.9745C19.6963 23.2281 19.8992 23.3295 20.0513 23.3295C20.3049 23.3295 20.4063 23.1266 20.4063 22.9745V18.9171C20.4063 18.6128 20.4063 18.3593 20.457 18.1564C20.457 18.0042 20.457 17.9028 20.457 17.8521C20.5585 17.2942 20.7613 16.8378 21.1164 16.4827C21.5221 16.1277 21.9278 15.9756 22.5364 15.9756C22.9422 15.9756 23.3479 16.077 23.6522 16.2799C24.1086 16.5842 24.3622 16.9392 24.4636 17.3956C24.5651 17.6999 24.5651 18.2071 24.5651 18.9171V22.9745C24.5651 23.1773 24.7172 23.3295 24.9201 23.3295C25.1737 23.3295 25.2751 23.1266 25.2751 22.9745L25.2244 22.7209V18.7143Z" fill="black"/>
<path d="M33.035 16.4828C32.2236 15.6714 31.2599 15.2656 30.1442 15.2656C29.0284 15.2656 28.0141 15.6714 27.2533 16.4828C26.4419 17.2943 26.0361 18.2579 26.0361 19.3737C26.0361 20.4894 26.4419 21.5038 27.2533 22.2645C28.0648 23.076 29.0284 23.4817 30.1949 23.4817C31.3614 23.4817 32.325 23.076 33.0857 22.2645C33.8972 21.4531 34.3029 20.4894 34.3029 19.323C34.3029 18.1565 33.8972 17.2436 33.035 16.4828ZM27.7098 21.8081C27.0505 21.1488 26.6954 20.3373 26.6954 19.3737C26.6954 18.4101 27.0505 17.5986 27.7098 16.8886C28.3691 16.2292 29.1806 15.8742 30.1949 15.8742C31.1078 15.8742 31.97 16.2292 32.6293 16.8886C33.2886 17.5479 33.6436 18.3593 33.6436 19.323C33.6436 20.2866 33.2886 21.1488 32.5786 21.8081C31.9193 22.4674 31.1078 22.8224 30.1442 22.8224C29.2313 22.8224 28.3691 22.4674 27.7098 21.8081Z" fill="black"/>
<path d="M39.07 15.2656C37.9035 15.2656 36.9399 15.6714 36.1791 16.4828C35.4184 17.2943 34.9619 18.2579 34.9619 19.3737C34.9619 20.4894 35.3676 21.4531 36.1284 22.2645V25.5611C36.1284 25.764 36.2805 25.9161 36.4834 25.9161C36.737 25.9161 36.8384 25.7132 36.8384 25.5611V22.8731C37.4977 23.3296 38.2585 23.5324 39.07 23.5324C40.2364 23.5324 41.2508 23.1267 42.0115 22.3659C42.823 21.5545 43.2794 20.6416 43.2794 19.4751C43.2794 18.3086 42.823 17.345 42.0115 16.5335C41.2001 15.6714 40.2364 15.2656 39.07 15.2656ZM36.4834 19.0187C36.3313 19.0187 36.1284 19.1708 36.1284 19.4244V21.1488C35.8241 20.6416 35.6719 20.033 35.6719 19.3737C35.6719 18.4608 36.027 17.5986 36.6863 16.9393C37.3963 16.2292 38.2078 15.9249 39.1714 15.9249C40.135 15.9249 40.9465 16.28 41.6565 16.9393C42.3158 17.5986 42.6708 18.4101 42.6708 19.4244C42.6708 20.388 42.3158 21.1995 41.6058 21.8588C40.9465 22.5181 40.135 22.8731 39.1714 22.8731C38.3092 22.8731 37.5485 22.5688 36.8891 21.9602V19.4244C36.8384 19.0694 36.6356 19.0187 36.4834 19.0187Z" fill="black"/>
</svg>
