<svg width="128" height="24" viewBox="0 0 128 24" fill="none" xmlns="http://www.w3.org/2000/svg">
<path d="M5.70838 16.168C4.34572 16.168 3.20238 15.72 2.27838 14.824C1.36372 13.9187 0.906383 12.7567 0.906383 11.338C0.906383 9.91933 1.36372 8.762 2.27838 7.866C3.20238 6.96067 4.34572 6.508 5.70838 6.508C7.20172 6.508 8.38238 7.124 9.25038 8.356L8.27038 8.902C7.99972 8.50067 7.63572 8.174 7.17838 7.922C6.72105 7.67 6.23105 7.544 5.70838 7.544C4.68172 7.544 3.82305 7.90333 3.13238 8.622C2.45105 9.33133 2.11038 10.2367 2.11038 11.338C2.11038 12.4393 2.45105 13.3493 3.13238 14.068C3.82305 14.7773 4.68172 15.132 5.70838 15.132C6.23105 15.132 6.72105 15.0107 7.17838 14.768C7.63572 14.516 7.99972 14.1847 8.27038 13.774L9.26438 14.32C8.35905 15.552 7.17372 16.168 5.70838 16.168ZM10.0603 16.168V15.132C10.4616 15.132 10.7883 15.0387 11.0403 14.852C11.2923 14.6653 11.5163 14.2967 11.7123 13.746C11.9083 13.186 12.0716 12.388 12.2023 11.352L12.7763 6.662H18.4883V16H17.3263V7.698H13.8123L13.3503 11.436C13.229 12.4347 13.0656 13.256 12.8603 13.9C12.6643 14.544 12.417 15.0293 12.1183 15.356C11.829 15.6733 11.5256 15.888 11.2083 16C10.9003 16.112 10.5176 16.168 10.0603 16.168ZM28.6651 16H27.3351L26.5091 13.928H21.8611L21.0351 16H19.7051L23.4571 6.662H24.8991L28.6651 16ZM26.1591 12.892L24.1851 7.866L22.1971 12.892H26.1591ZM29.2419 17.722V15.062C29.6526 15.034 29.9793 14.936 30.2219 14.768C30.4646 14.6 30.6839 14.2453 30.8799 13.704C31.0853 13.1627 31.2533 12.3787 31.3839 11.352L31.9579 6.662H37.6699V14.964H38.5239V17.722H37.3619V16H30.4039V17.722H29.2419ZM32.5319 11.436C32.3173 13.2373 31.8413 14.4133 31.1039 14.964H36.5079V7.698H32.9939L32.5319 11.436ZM47.0871 16H45.6451L42.1031 11.8L41.1651 12.864V16H40.0031V6.662H41.1651V11.492L45.2951 6.662H46.7511L42.8591 11.1L47.0871 16ZM49.5313 16H48.4113V6.662H49.5733V13.956L54.9493 6.662H56.1393V16H54.9773V8.552L49.5313 16ZM64.4414 16H58.3234V6.662H64.4414V7.698H59.4854V10.708H64.3434V11.744H59.4854V14.964H64.4414V16ZM69.2595 17.722V15.062C69.6702 15.034 69.9969 14.936 70.2395 14.768C70.4822 14.6 70.7015 14.2453 70.8975 13.704C71.1029 13.1627 71.2709 12.3787 71.4015 11.352L71.9755 6.662H77.6875V14.964H78.5415V17.722H77.3795V16H70.4215V17.722H69.2595ZM72.5495 11.436C72.3349 13.2373 71.8589 14.4133 71.1215 14.964H76.5255V7.698H73.0115L72.5495 11.436ZM87.8047 16H86.6427V11.716H81.1827V16H80.0207V6.662H81.1827V10.68H86.6427V6.662H87.8047V16ZM91.1075 16H89.9875V6.662H91.1495V13.956L96.5255 6.662H97.7155V16H96.5535V8.552L91.1075 16Z" fill="#2B1414"/>
<circle cx="116" cy="12" r="12" fill="#E7426A"/>
<path d="M115.119 11.09C114.669 11.55 114.089 11.78 113.379 11.78C112.669 11.78 112.089 11.55 111.639 11.09C111.199 10.62 110.979 10.035 110.979 9.335C110.979 8.625 111.204 8.035 111.654 7.565C112.104 7.085 112.679 6.845 113.379 6.845C114.089 6.845 114.669 7.085 115.119 7.565C115.579 8.035 115.809 8.625 115.809 9.335C115.809 10.035 115.579 10.62 115.119 11.09ZM113.244 17H112.434L118.824 6.995H119.649L113.244 17ZM120.339 16.49C119.889 16.95 119.309 17.18 118.599 17.18C117.889 17.18 117.309 16.95 116.859 16.49C116.419 16.02 116.199 15.435 116.199 14.735C116.199 14.025 116.424 13.435 116.874 12.965C117.324 12.485 117.899 12.245 118.599 12.245C119.309 12.245 119.889 12.485 120.339 12.965C120.789 13.435 121.014 14.025 121.014 14.735C121.014 15.435 120.789 16.02 120.339 16.49ZM112.299 10.55C112.579 10.87 112.939 11.03 113.379 11.03C113.819 11.03 114.184 10.87 114.474 10.55C114.764 10.22 114.909 9.815 114.909 9.335C114.909 8.835 114.764 8.425 114.474 8.105C114.194 7.775 113.829 7.61 113.379 7.61C112.939 7.61 112.579 7.775 112.299 8.105C112.019 8.425 111.879 8.835 111.879 9.335C111.879 9.815 112.019 10.22 112.299 10.55ZM117.504 15.95C117.794 16.27 118.159 16.43 118.599 16.43C119.039 16.43 119.404 16.27 119.694 15.95C119.984 15.62 120.129 15.215 120.129 14.735C120.129 14.235 119.984 13.825 119.694 13.505C119.414 13.175 119.049 13.01 118.599 13.01C118.149 13.01 117.784 13.175 117.504 13.505C117.224 13.825 117.084 14.235 117.084 14.735C117.084 15.215 117.224 15.62 117.504 15.95Z" fill="white"/>
</svg>
